{"title":"Pleasure or Pain (2014) NL Subs MPEG-4-HE AAC-LC x264-NLU002","uid":9935445,"size":999729615,"categoryP":"video","categoryS":"movies","magnet":"?xt=urn:btih:2ba9b56724077cf5f3dd80f5e690fc7591bafff6&amp;dn=Pleasure+or+Pain+%282014%29+NL+Subs+MPEG-4-HE+AAC-LC+x264-NLU002&amp;tr=udp%3A%2F%2Ftracker.openbittorrent.com%3A80&amp;tr=udp%3A%2F%2Fopen.demonii.com%3A1337&amp;tr=udp%3A%2F%2Ftracker.coppersurfer.tk%3A6969&amp;tr=udp%3A%2F%2Fexodus.desync.com%3A6969","seeders":9,"leechers":1,"uploader":"NLUPPER002","files":-1,"time":1397152053,"description":"Pleasure or Pain (2014) NL Subs MPEG-4-HE AAC-LC x264-NLU002\n.\nDutch DVD Release Date 01-2014\nRelease Info: http://www.bol.com/nl/p/pleasure-or-pain/9200000022773099/\n.\nDrama | Erotische Thriller  -  5 September 2013 (South Korea) \n. &lt;a href=&quot;\nhttp://www.imdb.com/title/tt2091327&quot; rel=&quot;nofollow&quot; target=&quot;_NEW&quot;&gt;\nhttp://www.imdb.com/title/tt2091327&lt;/a&gt;\n.\nPLOT\n.\nA wealthy real estate developer takes a young woman from an everyday mundane life and shows her a world of decadence and debauchery that pushes her sexual limits to the brink.\n.\nSource: Retail DVD5\nFormat: MP4\nVideo: 720x576\nAudio: English\nRetail Subtitles: Yellow Dutch. Hardcoded\nMenu: Yes\nNL Notes: 16+ Zeer Erotische Triller zou ik zeggen.\n.\nEnjoy MP4 DVDRip by NLU002\n.\nGeneral\nComplete name                            : Pleasure or Pain (2014) NL Subs MPEG-4-HE AAC-LC x264-NLU002.mp4\nFormat                                   : MPEG-4\nFormat profile                           : Base Media / Version 2\nCodec ID                                 : mp42\nFile size                                : 953 MiB\nDuration                                 : 1h 38mn\nOverall bit rate mode                    : Variable\nOverall bit rate                         : 1 354 Kbps\nMovie name                               : Pleasure or Pain (2014) NL Subs DVDRip-NLU002\nWriting application                      : TMPGEnc Video Mastering Works 5 Version. 5.4.2.103\nComment                                  : Enjoy encode from NLU002\n\nVideo\nID                                       : 2\nFormat                                   : AVC\nFormat/Info                              : Advanced Video Codec\nFormat profile                           : &lt;a class=&quot;__cf_email__&quot; href=&quot;/cdn-cgi/l/email-protection&quot; data-cfemail=&quot;4c04252b240c007f627c&quot;&gt;[email&amp;#160;protected]&lt;/a&gt;&lt;script cf-hash='f9e31' type=&quot;text/javascript&quot;&gt;\n/* &lt;![CDATA[ */!function(){try{var t=&quot;currentScript&quot;in document?document.currentScript:function(){for(var t=document.getElementsByTagName(&quot;script&quot;),e=t.length;e--;)if(t[e].getAttribute(&quot;cf-hash&quot;))return t[e]}();if(t&amp;&amp;t.previousSibling){var e,r,n,i,c=t.previousSibling,a=c.getAttribute(&quot;data-cfemail&quot;);if(a){for(e=&quot;&quot;,r=parseInt(a.substr(0,2),16),n=2;a.length-n;n+=2)i=parseInt(a.substr(n,2),16)^r,e+=String.fromCharCode(i);e=document.createTextNode(e),c.parentNode.replaceChild(e,c)}}}catch(u){}}();/* ]]&gt; */&lt;/script&gt;\nFormat settings, CABAC                   : Yes\nFormat settings, ReFrames                : 5 frames\nCodec ID                                 : avc1\nCodec ID/Info                            : Advanced Video Coding\nDuration                                 : 1h 38mn\nBit rate mode                            : Variable\nBit rate                                 : 1 154 Kbps\nWidth                                    : 720 pixels\nHeight                                   : 576 pixels\nDisplay aspect ratio                     : 16:9\nFrame rate mode                          : Constant\nFrame rate                               : 25.000 fps\nStandard                                 : NTSC\nColor space                              : YUV\nChroma subsampling                       : 4:2:0\nBit depth                                : 8 bits\nScan type                                : Progressive\nBits/(Pixel*Frame)                       : 0.111\nStream size                              : 800 MiB (84%)\nWriting library                          : x264 core 136\nEncoding settings                        : cabac=1 / ref=5 / deblock=1:0:0 / analyse=0x3:0x113 / me=hex / subme=7 / psy=1 / psy_rd=1.00:0.00 / mixed_ref=1 / me_range=16 / chroma_me=1 / trellis=1 / 8x8dct=1 / cqm=2 / deadzone=21,11 / fast_pskip=1 / chroma_qp_offset=-4 / threads=12 / lookahead_threads=2 / sliced_threads=0 / slices=1 / nr=0 / decimate=1 / interlaced=fake / bluray_compat=0 / constrained_intra=0 / bframes=3 / b_pyramid=0 / b_adapt=1 / b_bias=0 / direct=1 / weightb=1 / open_gop=0 / weightp=1 / keyint=250 / keyint_min=25 / scenecut=40 / intra_refresh=0 / rc_lookahead=40 / rc=2pass / mbtree=1 / bitrate=1153 / ratetol=1.0 / qcomp=0.60 / qpmin=5 / qpmax=69 / qpstep=4 / cplxblur=20.0 / qblur=0.5 / vbv_maxrate=1153 / vbv_bufsize=1153 / nal_hrd=vbr / ip_ratio=1.40 / aq=1:1.00\nColor primaries                          : BT.601 NTSC\nTransfer characteristics                 : BT.601\nMatrix coefficients                      : BT.601\n\nAudio\nID                                       : 1\nFormat                                   : AAC\nFormat/Info                              : Advanced Audio Codec\nFormat profile                           : HE-AAC / LC\nCodec ID                                 : 40\nDuration                                 : 1h 38mn\nBit rate mode                            : Variable\nBit rate                                 : 215 Kbps\nMaximum bit rate                         : 432 Kbps\nChannel(s)                               : 2 channels\nChannel(s)_Original                      : 3 channels\nChannel positions                        : Front: L R, Side: C\nSampling rate                            : 48.0 KHz / 24.0 KHz\nCompression mode                         : Lossy\nStream size                              : 151 MiB (16%)\n\n","torrent":{"xt":"urn:btih:2ba9b56724077cf5f3dd80f5e690fc7591bafff6","amp;dn":"Pleasure+or+Pain+%282014%29+NL+Subs+MPEG-4-HE+AAC-LC+x264-NLU002","amp;tr":["udp%3A%2F%2Ftracker.openbittorrent.com%3A80","udp%3A%2F%2Fopen.demonii.com%3A1337","udp%3A%2F%2Ftracker.coppersurfer.tk%3A6969","udp%3A%2F%2Fexodus.desync.com%3A6969"],"infoHash":"2ba9b56724077cf5f3dd80f5e690fc7591bafff6","infoHashBuffer":{"type":"Buffer","data":[43,169,181,103,36,7,124,245,243,221,128,245,230,144,252,117,145,186,255,246]},"announce":[],"urlList":[]}}